HIERARCHY
ROOT Hips
{
    OFFSET 0.000000 0.000000 0.000000
    CHANNELS 6 Xposition Yposition Zposition Zrotation Xrotation Yrotation
    JOINT Spine
    {
        OFFSET -0.000000 7.236184 0.000000
        CHANNELS 3 Zrotation Xrotation Yrotation
        JOINT Spine1
        {
            OFFSET -0.000000 20.420147 0.000000
            CHANNELS 3 Zrotation Xrotation Yrotation
            JOINT Neck
            {
                OFFSET -0.000000 20.336288 1.848754
                CHANNELS 3 Zrotation Xrotation Yrotation
                JOINT Head
                {
                    OFFSET -0.000000 12.354461 -1.764923
                    CHANNELS 3 Zrotation Xrotation Yrotation
                    End Site
                    {
                        OFFSET -0.000000 22.061537 0.000000
                    }
                }
            }
            JOINT LeftShoulder
            {
                OFFSET 3.573296 18.396038 -0.314103
                CHANNELS 3 Zrotation Xrotation Yrotation
                JOINT LeftArm
                {
                    OFFSET 10.880760 0.000000 0.000000
                    CHANNELS 3 Zrotation Xrotation Yrotation
                    JOINT LeftForeArm
                    {
                        OFFSET 27.185530 0.000000 0.000000
                        CHANNELS 3 Zrotation Xrotation Yrotation
                        JOINT LeftHand
                        {
                            OFFSET 27.825975 0.000000 0.000000
                            CHANNELS 3 Zrotation Xrotation Yrotation
                            End Site
                            {
                                OFFSET 13.236923 0.000000 0.000000
                            }
                        }
                    }
                }
            }
            JOINT RightShoulder
            {
                OFFSET -3.474926 18.396038 -0.314103
                CHANNELS 3 Zrotation Xrotation Yrotation
                JOINT RightArm
                {
                    OFFSET -10.880760 0.000000 0.000000
                    CHANNELS 3 Zrotation Xrotation Yrotation
                    JOINT RightForeArm
                    {
                        OFFSET -27.185530 0.000000 0.000000
                        CHANNELS 3 Zrotation Xrotation Yrotation
                        JOINT RightHand
                        {
                            OFFSET -27.825975 0.000000 0.000000
                            CHANNELS 3 Zrotation Xrotation Yrotation
                            End Site
                            {
                                OFFSET -13.236923 0.000000 0.000000
                            }
                        }
                    }
                }
            }
        }
    }
    JOINT LeftUpLeg
    {
        OFFSET 8.824615 0.000000 0.000000
        CHANNELS 3 Zrotation Xrotation Yrotation
        JOINT LeftLeg
        {
            OFFSET -0.000000 -35.111282 0.000000
            CHANNELS 3 Zrotation Xrotation Yrotation
            JOINT LeftFoot
            {
                OFFSET -0.000000 -42.324711 0.000000
                CHANNELS 3 Zrotation Xrotation Yrotation
                JOINT LeftToeBase
                {
                    OFFSET -0.000000 -5.735999 13.236923
                    CHANNELS 3 Zrotation Xrotation Yrotation
                    End Site
                    {
                        OFFSET -0.000000 0.000000 3.529846
                    }
                }
            }
        }
    }
    JOINT RightUpLeg
    {
        OFFSET -8.824615 0.000000 0.000000
        CHANNELS 3 Zrotation Xrotation Yrotation
        JOINT RightLeg
        {
            OFFSET -0.000000 -35.111282 0.000000
            CHANNELS 3 Zrotation Xrotation Yrotation
            JOINT RightFoot
            {
                OFFSET -0.000000 -42.324711 0.000000
                CHANNELS 3 Zrotation Xrotation Yrotation
                JOINT RightToeBase
                {
                    OFFSET -0.000000 -5.735999 13.236923
                    CHANNELS 3 Zrotation Xrotation Yrotation
                    End Site
                    {
                        OFFSET -0.000000 0.000000 3.529846
                    }
                }
            }
        }
    }
}
MOTION
Frames:    10
Frame Time:    0.008333
-4.904925    83.468002    99.218918    -1.306319    -10.731853    -173.715652    -3.175783    -16.846806    -0.846403    -0.140593    9.551074    -0.364247    2.924809    5.826785    -0.262664    0.957104    -35.165600    -0.133573    -0.631687    18.945185    -3.008703    -33.786865    50.581482    -48.715744    3.853133    -3.470597    -16.143101    17.870674    -3.036862    -0.713572    5.691263    20.652634    -4.133063    33.006115    50.327034    44.732067    -6.644724    -9.049851    20.407190    -17.115738    -7.619137    -1.652175    3.717972    -11.269177    -4.541562    -0.534363    9.521960    2.359837    -6.257011    -7.240382    -9.608786    -0.500276    -0.597697    0.555138    -7.303827    -4.410581    -0.217374    2.601893    2.071024    1.525964    1.204424    -5.271005    -11.185580    -2.089224    0.354561    2.258524    
-4.889149    83.469658    99.209152    -1.300323    -10.766379    -173.744858    -3.171182    -16.849060    -0.840941    -0.142121    9.545552    -0.359245    2.908134    5.492189    -0.233377    0.990388    -34.634815    -0.100330    -0.632797    18.946344    -3.013506    -33.796135    50.575550    -48.697945    3.844074    -3.469795    -16.132843    17.900955    -3.035123    -0.695876    5.690744    20.642523    -4.126549    32.971111    50.333767    44.785984    -6.676005    -9.062017    20.442924    -17.164274    -7.619735    -1.673325    3.733486    -11.301102    -4.525132    -0.530406    9.534850    2.382527    -6.270720    -7.245800    -9.616227    -0.501171    -0.601459    0.556135    -7.282552    -4.451899    -0.217253    2.592618    2.078505    1.528687    1.197775    -5.268555    -11.161847    -2.084150    0.346232    2.253063    
-4.873337    83.471367    99.199509    -1.293772    -10.800978    -173.773987    -3.166421    -16.851496    -0.835396    -0.143145    9.539599    -0.354343    2.891603    5.158949    -0.204489    1.023629    -34.107048    -0.067417    -0.633664    18.947304    -3.018956    -33.804890    50.570126    -48.680832    3.835029    -3.468839    -16.122438    17.930677    -3.033142    -0.677900    5.689990    20.632536    -4.119459    32.935688    50.340469    44.840302    -6.706778    -9.074333    20.477428    -17.211178    -7.620643    -1.694598    3.749844    -11.332421    -4.512862    -0.527502    9.546179    2.410080    -6.284366    -7.250559    -9.624111    -0.502117    -0.604753    0.557188    -7.260614    -4.493376    -0.216332    2.583216    2.085999    1.531232    1.191904    -5.266387    -11.138642    -2.079190    0.337902    2.247728    
-4.857403    83.473221    99.190048    -1.286026    -10.835882    -173.802979    -3.161083    -16.854498    -0.829849    -0.143581    9.532864    -0.349545    2.875088    4.829168    -0.175790    1.057270    -33.585888    -0.034748    -0.633801    18.948120    -3.024971    -33.811848    50.565567    -48.665947    3.825726    -3.467482    -16.111786    17.959051    -3.030760    -0.659688    5.688707    20.623009    -4.111069    32.899181    50.347542    44.895664    -6.737270    -9.086750    20.509878    -17.254591    -7.621720    -1.716466    3.767983    -11.363695    -4.502414    -0.525748    9.556445    2.439301    -6.297519    -7.255167    -9.631405    -0.503012    -0.608058    0.558184    -7.237307    -4.535332    -0.213787    2.573679    2.093315    1.533169    1.186727    -5.264446    -11.116358    -2.074448    0.329687    2.242626    
-4.841274    83.475266    99.180840    -1.276625    -10.871264    -173.831772    -3.155013    -16.858364    -0.824283    -0.143132    9.525233    -0.344901    2.858676    4.503675    -0.147404    1.091121    -33.073071    -0.002337    -0.632984    18.948620    -3.031888    -33.816376    50.562370    -48.654186    3.816294    -3.465819    -16.100706    17.984964    -3.028087    -0.641480    5.686458    20.614202    -4.100399    32.862892    50.354034    44.951157    -6.767170    -9.098418    20.540165    -17.293535    -7.622081    -1.739880    3.788427    -11.395166    -4.493412    -0.525141    9.565616    2.469681    -6.310273    -7.259708    -9.637938    -0.503847    -0.611304    0.559114    -7.212113    -4.578013    -0.209100    2.564012    2.100340    1.534259    1.183161    -5.262792    -11.095170    -2.069912    0.321462    2.237748    
-4.824935    83.477547    99.171951    -1.265301    -10.907299    -173.860214    -3.148228    -16.863348    -0.818864    -0.141472    9.516472    -0.340251    2.842617    4.184647    -0.119482    1.124624    -32.572144    0.029511    -0.631569    18.948685    -3.039841    -33.817741    50.560642    -48.646004    3.806731    -3.464029    -16.089191    18.006134    -3.025450    -0.624367    5.682831    20.606609    -4.086663    32.828228    50.359215    45.005524    -6.796530    -9.109235    20.568132    -17.327354    -7.621717    -1.764453    3.811479    -11.426939    -4.485907    -0.525801    9.573384    2.501583    -6.322362    -7.264050    -9.644012    -0.504598    -0.614248    0.559951    -7.184669    -4.621704    -0.202160    2.553906    2.107353    1.534348    1.181313    -5.261646    -11.075121    -2.065694    0.313153    2.233213    
-4.808228    83.480148    99.163361    -1.251741    -10.944510    -173.888336    -3.140510    -16.869776    -0.813278    -0.138599    9.506491    -0.335942    2.826623    3.870465    -0.092054    1.158677    -32.081020    0.061288    -0.629239    18.948097    -3.048621    -33.815453    50.560802    -48.642315    3.797018    -3.462548    -16.077047    18.020485    -3.023513    -0.609703    5.677363    20.600029    -4.069401    32.796478    50.362679    45.058052    -6.825493    -9.119809    20.594145    -17.356064    -7.621381    -1.788839    3.837590    -11.459166    -4.482518    -0.528215    9.579034    2.537961    -6.334035    -7.267890    -9.649737    -0.505332    -0.616701    0.560768    -7.154625    -4.666895    -0.192595    2.543494    2.114137    1.533433    1.181545    -5.260866    -11.056451    -2.061713    0.304312    2.228936    
-4.791244    83.483032    99.155045    -1.236090    -10.982713    -173.915878    -3.131993    -16.877739    -0.807701    -0.134656    9.495443    -0.331865    2.811098    3.563267    -0.065170    1.192724    -31.603071    0.092387    -0.625866    18.946978    -3.058277    -33.809319    50.562504    -48.643486    3.787337    -3.461465    -16.064466    18.026222    -3.022431    -0.598318    5.670364    20.594458    -4.049282    32.767071    50.364468    45.108891    -6.853970    -9.131341    20.618351    -17.379755    -7.622593    -1.811049    3.866565    -11.491858    -4.481454    -0.532153    9.582923    2.576406    -6.344991    -7.271462    -9.654792    -0.505879    -0.619134    0.561377    -7.122173    -4.713337    -0.180721    2.532726    2.120683    1.530900    1.183919    -5.260500    -11.038501    -2.058033    0.295326    2.224984    
-4.774000    83.486130    99.146866    -1.218744    -11.021839    -173.942841    -3.122993    -16.886963    -0.802316    -0.129770    9.483348    -0.327853    2.796083    3.261404    -0.038969    1.226923    -31.136250    0.122922    -0.622016    18.945486    -3.068783    -33.798901    50.565182    -48.649590    3.777630    -3.460275    -16.051361    18.023998    -3.021691    -0.589614    5.662597    20.589127    -4.027389    32.738701    50.365093    45.158680    -6.881984    -9.144559    20.641472    -17.399244    -7.626158    -1.830056    3.897781    -11.524406    -4.485030    -0.537558    9.584263    2.619804    -6.355411    -7.274344    -9.659889    -0.506305    -0.621092    0.561852    -7.087781    -4.760703    -0.166868    2.521743    2.126837    1.526744    1.189073    -5.260606    -11.020917    -2.054660    0.285880    2.221368    
-4.756803    83.489204    99.138542    -1.200724    -11.060797    -173.968719    -3.114093    -16.896858    -0.797054    -0.124464    9.470763    -0.324216    2.782210    2.966715    -0.013517    1.260454    -30.683764    0.152274    -0.617423    18.943119    -3.080071    -33.785698    50.568642    -48.659569    3.767964    -3.458118    -16.037872    18.015673    -3.020117    -0.582382    5.654557    20.583763    -4.004925    32.711071    50.364677    45.207382    -6.909159    -9.159175    20.664339    -17.415012    -7.631860    -1.845803    3.929889    -11.555534    -4.492142    -0.543811    9.583302    2.665900    -6.365439    -7.276932    -9.664791    -0.506629    -0.622588    0.562213    -7.052956    -4.807098    -0.151388    2.511108    2.132244    1.521734    1.197327    -5.261562    -11.004579    -2.051629    0.275471    2.218122    
